<?xml version="1.0" encoding="UTF-8"?>
<svg version="1.1" xmlns="http://www.w3.org/2000/svg" width="80" height="80">
<path d="M0 0 C1.65 0.33 3.3 0.66 5 1 C5 2.32 5 3.64 5 5 C10.28 5 15.56 5 21 5 C21.33 3.35 21.66 1.7 22 0 C23.32 0 24.64 0 26 0 C26 1.65 26 3.3 26 5 C26.90492187 4.93039062 26.90492187 4.93039062 27.828125 4.859375 C28.62734375 4.82328125 29.4265625 4.7871875 30.25 4.75 C31.03890625 4.70359375 31.8278125 4.6571875 32.640625 4.609375 C36.07494032 5.17797025 36.94929311 6.16884176 39 9 C39.61937365 12.35920923 39.58417953 15.68546553 39.56640625 19.09375 C39.57570412 20.56926331 39.57570412 20.56926331 39.58518982 22.07458496 C39.59228747 24.15241507 39.58911495 26.23030205 39.57641602 28.30810547 C39.56254788 31.48901854 39.59662521 34.66699157 39.63476562 37.84765625 C39.6357168 39.86718822 39.6338581 41.88672388 39.62890625 43.90625 C39.64216446 44.85737671 39.65542267 45.80850342 39.66908264 46.78845215 C39.61076046 50.9194151 39.57388373 53.23376548 37.05444336 56.59765625 C32.80046614 58.55072516 29.13243285 58.57400895 24.5 58.53125 C23.58669922 58.5350769 22.67339844 58.53890381 21.73242188 58.54284668 C19.80597834 58.54556253 17.87949772 58.53822424 15.953125 58.52148438 C13.00957792 58.50006968 10.06847145 58.52129671 7.125 58.546875 C5.24999463 58.54423167 3.37499077 58.53910657 1.5 58.53125 C0.62279297 58.53934692 -0.25441406 58.54744385 -1.15820312 58.55578613 C-4.96514102 58.49755844 -7.56175524 58.20120517 -11.05444336 56.59765625 C-14.06483038 52.57826638 -13.69716844 48.80329097 -13.62890625 43.90625 C-13.63131821 42.92257446 -13.63373016 41.93889893 -13.63621521 40.92541504 C-13.63523655 38.84753382 -13.62183861 36.7696266 -13.59692383 34.69189453 C-13.56262018 31.51114339 -13.57626282 28.33317079 -13.59570312 25.15234375 C-13.58880457 23.13280067 -13.57913211 21.11326477 -13.56640625 19.09375 C-13.57136612 18.14262329 -13.57632599 17.19149658 -13.58143616 16.21154785 C-13.46422014 9.64089154 -13.46422014 9.64089154 -11.11206055 6.39355469 C-8.59079661 4.73000428 -7.24079972 4.5740706 -4.25 4.75 C-3.45078125 4.78609375 -2.6515625 4.8221875 -1.828125 4.859375 C-1.22484375 4.90578125 -0.6215625 4.9521875 0 5 C0 3.35 0 1.7 0 0 Z M-9 12 C-9 14.97 -9 17.94 -9 21 C5.52 21 20.04 21 35 21 C35 18.03 35 15.06 35 12 C33.04366025 9.58878141 33.04366025 9.58878141 29.375 9.875 C27.704375 9.936875 27.704375 9.936875 26 10 C25.67 11.32 25.34 12.64 25 14 C24.01 14 23.02 14 22 14 C21.67 12.68 21.34 11.36 21 10 C15.72 10 10.44 10 5 10 C4.67 11.32 4.34 12.64 4 14 C3.01 14 2.02 14 1 14 C0.67 12.68 0.34 11.36 0 10 C-5.0205829 9.49708619 -5.0205829 9.49708619 -9 12 Z M-9 26 C-9.04125 29.898125 -9.0825 33.79625 -9.125 37.8125 C-9.14320801 39.03815674 -9.16141602 40.26381348 -9.18017578 41.52661133 C-9.1851709 42.4936499 -9.19016602 43.46068848 -9.1953125 44.45703125 C-9.20578613 45.44678955 -9.21625977 46.43654785 -9.22705078 47.45629883 C-9.18267404 50.2443952 -9.18267404 50.2443952 -7 53 C-3.97288984 53.30385765 -1.15412526 53.41986798 1.875 53.3984375 C2.75526855 53.40130768 3.63553711 53.40417786 4.54248047 53.40713501 C6.40527997 53.40917828 8.2681008 53.40363009 10.13085938 53.39111328 C12.98876741 53.37506308 15.84526116 53.39095282 18.703125 53.41015625 C20.5104198 53.40817386 22.31771372 53.40433029 24.125 53.3984375 C25.41253174 53.40754654 25.41253174 53.40754654 26.72607422 53.4168396 C29.38139117 53.42053717 29.38139117 53.42053717 33 53 C35.26598448 49.60102327 35.23742654 48.43680827 35.1953125 44.45703125 C35.19031738 43.48999268 35.18532227 42.5229541 35.18017578 41.52661133 C35.16196777 40.30095459 35.14375977 39.07529785 35.125 37.8125 C35.08375 33.914375 35.0425 30.01625 35 26 C20.48 26 5.96 26 -9 26 Z " fill="#F9F9FA" transform="translate(27,10)"/>
</svg>
