<?xml version="1.0" encoding="UTF-8"?>
<svg version="1.1" xmlns="http://www.w3.org/2000/svg" width="80" height="80">
<path d="M0 0 C1.0415625 -0.020625 2.083125 -0.04125 3.15625 -0.0625 C12.78996279 -0.1117773 12.78996279 -0.1117773 16.625 3.25 C18.79080027 7.58160053 17.94381606 13.30474144 18 18.0625 C18.05607422 19.84624023 18.05607422 19.84624023 18.11328125 21.66601562 C18.19918784 30.16599516 18.19918784 30.16599516 15.8828125 34.5390625 C10.74570523 37.23696776 5.83547165 36.93323569 0.125 36.8125 C-1.00292969 36.82345703 -2.13085938 36.83441406 -3.29296875 36.84570312 C-11.48009027 36.77303637 -11.48009027 36.77303637 -15.19921875 34.59936523 C-17.97322573 31.60404778 -17.99513748 30.13103445 -17.96875 26.09375 C-17.96617188 24.90652344 -17.96359375 23.71929687 -17.9609375 22.49609375 C-17.93257812 21.25988281 -17.90421875 20.02367187 -17.875 18.75 C-17.87757812 17.51378906 -17.88015625 16.27757812 -17.8828125 15.00390625 C-17.77078071 4.68577812 -17.77078071 4.68577812 -14.375 1.25 C-9.67171926 -0.31776025 -4.92610228 0.02420689 0 0 Z M-12.15332031 6.48535156 C-13.71189231 8.73662222 -13.74839608 10.08750994 -13.73828125 12.8125 C-13.73763672 13.69164062 -13.73699219 14.57078125 -13.73632812 15.4765625 C-13.72021484 16.39179687 -13.70410156 17.30703125 -13.6875 18.25 C-13.69072266 19.16523437 -13.69394531 20.08046875 -13.69726562 21.0234375 C-13.75557657 26.45224803 -13.75557657 26.45224803 -11.375 31.25 C-8.9898508 31.71559958 -8.9898508 31.71559958 -6.21875 31.6484375 C-5.19652344 31.65230469 -4.17429687 31.65617187 -3.12109375 31.66015625 C-1.51427734 31.64275391 -1.51427734 31.64275391 0.125 31.625 C1.19621094 31.63660156 2.26742188 31.64820312 3.37109375 31.66015625 C4.39332031 31.65628906 5.41554688 31.65242188 6.46875 31.6484375 C7.87930664 31.64336182 7.87930664 31.64336182 9.31835938 31.63818359 C10.46014648 31.44603271 10.46014648 31.44603271 11.625 31.25 C13.70286782 28.13319828 13.87455914 27.44283758 13.85546875 23.90625 C13.85353516 23.07222656 13.85160156 22.23820312 13.84960938 21.37890625 C13.83736328 20.51136719 13.82511719 19.64382812 13.8125 18.75 C13.81185547 17.88246094 13.81121094 17.01492187 13.81054688 16.12109375 C13.77953168 11.10709417 13.77953168 11.10709417 12.625 6.25 C8.86345432 4.36922716 4.32676726 5.02197355 0.1875 5 C-0.77994141 4.979375 -1.74738281 4.95875 -2.74414062 4.9375 C-3.67291016 4.93234375 -4.60167969 4.9271875 -5.55859375 4.921875 C-6.40993896 4.9125293 -7.26128418 4.90318359 -8.13842773 4.89355469 C-10.42137924 5.09144456 -10.42137924 5.09144456 -12.15332031 6.48535156 Z " fill="#F9F9FA" transform="translate(21.375,36.75)"/>
<path d="M0 0 C3.49010734 2.39990609 5.96431345 5.4833144 7.86328125 9.28125 C8.59572962 16.08255634 8.65862562 22.01224635 4.47265625 27.65625 C0.46116715 31.7066856 -3.97604632 33.46893704 -9.63671875 33.78125 C-15.29739118 33.46893704 -19.73460465 31.7066856 -23.74609375 27.65625 C-27.38175994 22.75422817 -27.83064617 18.05495487 -27.55859375 12.0546875 C-26.78686565 6.98128978 -24.35373719 4.40465164 -20.69921875 1.03125 C-13.746264 -3.71710934 -7.38137339 -4.01317388 0 0 Z M-20.51171875 7.34375 C-22.89901896 11.65925422 -23.15514697 15.46618129 -22.13671875 20.28125 C-20.11128808 23.70842689 -17.72170171 26.48875852 -14.13671875 28.28125 C-8.7965912 28.6314223 -5.45758278 28.76194602 -1.13671875 25.28125 C2.25307372 21.79729662 3.76522397 19.18411413 3.86328125 14.28125 C2.25092347 9.08587492 0.38579337 6.29625808 -4.13671875 3.28125 C-10.22763445 0.23579215 -15.8033597 3.25491188 -20.51171875 7.34375 Z " fill="#F9F9FA" transform="translate(68.13671875,39.71875)"/>
<path d="M0 0 C3.21185654 2.95331021 5.2937336 5.91648845 7.41796875 9.71875 C8.03220703 10.81574219 8.64644531 11.91273437 9.27929688 13.04296875 C10.22385742 14.75419922 10.22385742 14.75419922 11.1875 16.5 C11.82880859 17.64082031 12.47011719 18.78164063 13.13085938 19.95703125 C17.86749086 28.46996345 17.86749086 28.46996345 19 33 C6.79 33 -5.42 33 -18 33 C-16.43994613 28.31983839 -14.98794064 24.93842884 -12.55859375 20.76171875 C-12.23085464 20.19548294 -11.90311554 19.62924713 -11.56544495 19.04585266 C-10.87798401 17.86037498 -10.1879195 16.67640359 -9.49536133 15.49389648 C-8.43204117 13.67817853 -7.37650471 11.85811228 -6.32226562 10.03710938 C-1.17138732 1.17138732 -1.17138732 1.17138732 0 0 Z M0 9 C-1.67007687 11.97726736 -3.33548572 14.9571197 -5 17.9375 C-5.47695313 18.78763672 -5.95390625 19.63777344 -6.4453125 20.51367188 C-7.12207031 21.72700195 -7.12207031 21.72700195 -7.8125 22.96484375 C-8.23144531 23.7137085 -8.65039062 24.46257324 -9.08203125 25.23413086 C-10.07687345 26.81617648 -10.07687345 26.81617648 -10 28 C-3.07 28 3.86 28 11 28 C7.81803034 21.56374319 4.65272433 15.18153348 1 9 C0.67 9 0.34 9 0 9 Z " fill="#F9F9FA" transform="translate(58,3)"/>
<path d="M0 0 C4.68191549 0.45738073 6.63104174 2.19110394 9.8125 5.5625 C10.60269531 6.38878906 11.39289062 7.21507812 12.20703125 8.06640625 C12.79871094 8.70449219 13.39039063 9.34257812 14 10 C18.34793348 8.15601035 20.86853559 5.11695899 24 1.6796875 C26 0 26 0 30 0 C29.54261927 4.68191549 27.80889606 6.63104174 24.4375 9.8125 C23.61121094 10.60269531 22.78492187 11.39289062 21.93359375 12.20703125 C21.29550781 12.79871094 20.65742188 13.39039063 20 14 C21.84398965 18.34793348 24.88304101 20.86853559 28.3203125 24 C30 26 30 26 30 30 C25.31808451 29.54261927 23.36895826 27.80889606 20.1875 24.4375 C19.39730469 23.61121094 18.60710938 22.78492187 17.79296875 21.93359375 C17.20128906 21.29550781 16.60960938 20.65742188 16 20 C11.65206652 21.84398965 9.13146441 24.88304101 6 28.3203125 C4 30 4 30 0 30 C0.45738073 25.31808451 2.19110394 23.36895826 5.5625 20.1875 C6.38878906 19.39730469 7.21507812 18.60710938 8.06640625 17.79296875 C8.70449219 17.20128906 9.34257812 16.60960938 10 16 C8.15601035 11.65206652 5.11695899 9.13146441 1.6796875 6 C0 4 0 4 0 0 Z " fill="#F9F9FB" transform="translate(6,6)"/>
</svg>
