<?xml version="1.0" encoding="UTF-8"?>
<svg version="1.1" xmlns="http://www.w3.org/2000/svg" width="72" height="72">
<path d="M0 0 C4.23387456 3.67242597 6.42009548 7.08790836 7.2734375 12.68359375 C7.59273743 19.94346573 6.71065592 25.09133751 1.796875 30.55859375 C-3.2056521 35.43285093 -8.35220092 36.45220105 -15.078125 37.43359375 C-24.20896439 38.93285503 -29.54856995 41.98963857 -35.5703125 49.09765625 C-38.05972119 52.84963585 -38.63953183 56.12029757 -39.203125 60.55859375 C-41.140625 61.12109375 -41.140625 61.12109375 -43.203125 61.55859375 C-43.533125 61.22859375 -43.863125 60.89859375 -44.203125 60.55859375 C-43.74640404 51.88089554 -41.2208328 46.14581617 -34.828125 40.18359375 C-31.46204189 37.34606914 -28.59726201 35.45995519 -24.203125 34.55859375 C-24.92628906 33.79675781 -24.92628906 33.79675781 -25.6640625 33.01953125 C-31.21279518 26.97254502 -33.74939368 22.17799756 -33.51171875 13.859375 C-32.64147515 7.37110312 -29.12465389 2.70352709 -24.05078125 -1.25 C-16.30381904 -6.24539847 -7.29028042 -5.14693798 0 0 Z M-26.578125 7.37109375 C-29.11387313 12.34506124 -29.82667246 16.34444346 -28.140625 21.68359375 C-26.13499017 26.46554716 -22.84050251 29.239905 -18.203125 31.55859375 C-13.24830406 32.10219821 -9.33186648 32.12296449 -4.828125 29.87109375 C-0.18306534 25.77901738 2.57103258 22.55100581 3.046875 16.24609375 C2.73215206 11.60393038 1.69518805 8.43665813 -1.66796875 5.109375 C-6.24372452 1.20487925 -8.94931298 0.19629985 -14.8203125 0.28125 C-20.00689651 0.88493437 -23.21958142 3.39387109 -26.578125 7.37109375 Z " fill="#FFFFFF" transform="translate(47.203125,6.44140625)"/>
<path d="M0 0 C2.93012397 0.42358441 2.93012397 0.42358441 6.66015625 -0.2734375 C9.72265625 -0.7109375 9.72265625 -0.7109375 12.03515625 -0.0234375 C14.0967155 1.57999747 14.73203015 2.88141038 15.72265625 5.2890625 C16.17043436 9.46832491 15.5540352 13.00075946 13.265625 16.546875 C10.25694399 20.09960944 7.13311985 23.59273034 2.72265625 25.2890625 C-2.04947677 25.61443521 -4.53774386 23.49739318 -8.02734375 20.5390625 C-11.75177579 17.22001082 -14.05905707 14.29470214 -14.4296875 9.19140625 C-14.04221879 5.64782873 -13.54482148 3.6546154 -11.40234375 0.7265625 C-7.29193923 -1.16422358 -4.40752362 -0.60507054 0 0 Z M-9.27734375 5.2890625 C-9.65678134 8.51428205 -9.95616243 11.13061517 -8.265625 14.015625 C-6.15676133 16.58679212 -4.04513939 18.44386541 -1.27734375 20.2890625 C3.12499207 20.05736061 5.5344393 18.21877538 8.72265625 15.2890625 C11.16034843 11.63252423 10.96210064 9.59906149 10.72265625 5.2890625 C9.67403531 4.03750196 9.67403531 4.03750196 7.34765625 3.9765625 C4.57182427 4.01576971 4.57182427 4.01576971 2.91015625 6.2890625 C2.51828125 6.9490625 2.12640625 7.6090625 1.72265625 8.2890625 C-1.27734375 7.2890625 -1.27734375 7.2890625 -3.27734375 4.2890625 C-6.56646519 3.7976512 -6.56646519 3.7976512 -9.27734375 5.2890625 Z " fill="#FFFFFF" transform="translate(53.27734375,42.7109375)"/>
</svg>
