<?xml version="1.0" encoding="UTF-8"?>
<svg version="1.1" xmlns="http://www.w3.org/2000/svg" width="80" height="80">
<path d="M0 0 C4.95 0 9.9 0 15 0 C15 1.32 15 2.64 15 4 C13.35 4 11.7 4 10 4 C10 15.88 10 27.76 10 40 C8.35 39.67 6.7 39.34 5 39 C5 34.71 5 30.42 5 26 C2.36 26 -0.28 26 -3 26 C-3.0928125 27.36125 -3.0928125 27.36125 -3.1875 28.75 C-4 32 -4 32 -6 34.3125 C-9.99571105 36.56008746 -13.43270789 37.18625482 -18 37 C-23.39641352 35.30700752 -26.87290491 31.60193071 -30 27 C-30 26.34 -30 25.68 -30 25 C-28.35 24.67 -26.7 24.34 -25 24 C-24.34 24.969375 -23.68 25.93875 -23 26.9375 C-20.81111188 29.58292764 -19.27899234 30.50384613 -15.875 31 C-11.9364406 31.35824388 -11.9364406 31.35824388 -9 29 C-9.33 28.01 -9.66 27.02 -10 26 C-11.32 26 -12.64 26 -14 26 C-14.33 25.01 -14.66 24.02 -15 23 C-14.21625 22.401875 -13.4325 21.80375 -12.625 21.1875 C-9.85425677 19.08914751 -9.85425677 19.08914751 -8 16 C-7.66659529 12.95804573 -7.66659529 12.95804573 -8 10 C-9.93889246 7.64360592 -9.93889246 7.64360592 -13.4375 7.625 C-17.04613637 7.61977267 -17.04613637 7.61977267 -18.9375 10 C-19.288125 10.66 -19.63875 11.32 -20 12 C-21.65 11.67 -23.3 11.34 -25 11 C-23.64995627 6.58167506 -22.00638894 4.35157612 -18 2 C-13.99180012 1.26976116 -10.90748371 1.59667391 -7.1875 3.25 C-2.23125565 7.21499548 -2.23125565 7.21499548 -1.75 10.9296875 C-1.63665379 14.79762706 -1.82421894 16.73632842 -4 20 C-1.03 20.33 1.94 20.66 5 21 C5 15.39 5 9.78 5 4 C3.35 4 1.7 4 0 4 C0 2.68 0 1.36 0 0 Z " fill="#F9F9FA" transform="translate(36,10)"/>
<path d="M0 0 C2.66387474 1.33193737 2.67893603 2.39363455 3.61987305 5.1809082 C3.92326096 6.06885574 4.22664886 6.95680328 4.53923035 7.87165833 C4.86015152 8.83826889 5.18107269 9.80487946 5.51171875 10.80078125 C5.8442012 11.78870163 6.17668365 12.77662201 6.51924133 13.79447937 C7.22146948 15.88897576 7.91977833 17.98478959 8.61450195 20.08178711 C9.68097196 23.2928446 10.76641565 26.49704884 11.85351562 29.70117188 C12.53241562 31.73398609 13.21018751 33.76717748 13.88671875 35.80078125 C14.21371262 36.76131912 14.54070648 37.72185699 14.87760925 38.71150208 C15.17154068 39.6089061 15.46547211 40.50631012 15.76831055 41.4309082 C16.03097214 42.21842972 16.29363373 43.00595123 16.56425476 43.81733704 C17.04658074 46.23332454 16.77854003 47.68665745 16 50 C14.68 50 13.36 50 12 50 C10.02 44.06 8.04 38.12 6 32 C2.37 31.67 -1.26 31.34 -5 31 C-5.2475 32.27875 -5.495 33.5575 -5.75 34.875 C-6.91164561 40.169747 -8.86340266 45.03189259 -11 50 C-12.65 49.67 -14.3 49.34 -16 49 C-14.36491174 43.95014603 -12.72913953 38.90051427 -11.09277344 33.85107422 C-10.53790465 32.13856784 -9.98321253 30.42600421 -9.42871094 28.71337891 C-6.32534662 19.12880066 -3.21170213 9.54895046 0 0 Z M0 16 C-0.99 19.3 -1.98 22.6 -3 26 C-0.69 26 1.62 26 4 26 C3.71872579 24.51882199 3.42466268 23.04006751 3.125 21.5625 C2.88136719 20.32693359 2.88136719 20.32693359 2.6328125 19.06640625 C2.42398438 18.38449219 2.21515625 17.70257813 2 17 C1.34 16.67 0.68 16.34 0 16 Z " fill="#F9F9FA" transform="translate(57,21)"/>
</svg>
