<?xml version="1.0" encoding="UTF-8"?>
<svg version="1.1" xmlns="http://www.w3.org/2000/svg" width="56" height="56">
<path d="M0 0 C4.05938185 2.02969092 6.57465256 4.20051804 9 8 C9.9150674 12.23484679 9.89554213 16.2889298 7.86328125 20.171875 C4.30409578 24.69325497 3.19801683 24.96699719 -3 26 C-3 32.27 -3 38.54 -3 45 C-4.98 45.495 -4.98 45.495 -7 46 C-8 45 -8 45 -8.11352539 43.14233398 C-8.10828857 42.35157471 -8.10305176 41.56081543 -8.09765625 40.74609375 C-8.09443359 39.89208984 -8.09121094 39.03808594 -8.08789062 38.15820312 C-8.07951172 37.26037109 -8.07113281 36.36253906 -8.0625 35.4375 C-8.05798828 34.53580078 -8.05347656 33.63410156 -8.04882812 32.70507812 C-8.03700225 30.46998686 -8.0205222 28.23502563 -8 26 C-9.15435547 25.80857422 -9.15435547 25.80857422 -10.33203125 25.61328125 C-14.3499591 24.68968729 -16.86040152 22.51946463 -19.3125 19.25 C-20.87478472 14.13706819 -20.69088477 10.35618121 -18.3125 5.6875 C-13.04393799 -0.43542342 -7.82149386 -1.04516291 0 0 Z " fill="#F9F9FA" transform="translate(33,0)"/>
<path d="M0 0 C1.98572265 0.1910661 3.96983128 0.42154834 5.9375 0.75 C5.6075 2.07 5.2775 3.39 4.9375 4.75 C4.34582031 4.74097656 3.75414063 4.73195312 3.14453125 4.72265625 C2.35433594 4.75230469 1.56414063 4.78195313 0.75 4.8125 C-0.02730469 4.82410156 -0.80460937 4.83570313 -1.60546875 4.84765625 C-5.15476913 5.8892674 -5.15476913 5.8892674 -9.0625 12.75 C4.1375 12.75 17.3375 12.75 30.9375 12.75 C27.02976913 5.8892674 27.02976913 5.8892674 23.48046875 4.84765625 C22.31451172 4.83025391 22.31451172 4.83025391 21.125 4.8125 C20.33480469 4.78285156 19.54460938 4.75320312 18.73046875 4.72265625 C18.13878906 4.73167969 17.54710937 4.74070313 16.9375 4.75 C16.4425 2.77 16.4425 2.77 15.9375 0.75 C20.50627737 -0.08784789 24.39587747 -0.33181349 28.9375 0.75 C33.33015878 4.08175984 36.36903694 8.94935122 38.9375 13.75 C38.9375 15.07 38.9375 16.39 38.9375 17.75 C20.4575 17.75 1.9775 17.75 -17.0625 17.75 C-15.19588719 8.41693597 -10.2558703 -0.07846021 0 0 Z " fill="#F9F9FA" transform="translate(17.0625,38.25)"/>
</svg>
