<?xml version="1.0" encoding="UTF-8"?>
<svg version="1.1" xmlns="http://www.w3.org/2000/svg" width="56" height="56">
<path d="M0 0 C5.04820896 4.90798093 7.38201249 9.65433049 7.6875 16.625 C7.58724409 25.8374045 3.56182445 33.13291307 -2.75 39.6875 C-4.0599305 40.88038347 -5.39163603 42.05007475 -6.75 43.1875 C-7.28882812 43.65285156 -7.82765625 44.11820313 -8.3828125 44.59765625 C-10.86502772 46.51455021 -12.39911435 47.19973451 -15.55078125 47.08984375 C-19.50109767 45.97565194 -21.91467702 43.96390191 -24.8125 41.1875 C-25.33690674 40.69636719 -25.86131348 40.20523438 -26.40161133 39.69921875 C-32.78712443 33.50866025 -36.79986498 26.6345777 -37.1875 17.625 C-37.11381179 10.86206023 -35.1722248 6.28145515 -30.75 1.1875 C-21.27483265 -6.69032113 -10.12526412 -6.67346953 0 0 Z M-27.5625 5.625 C-31.43168912 10.15747869 -32.26367571 13.57979323 -32.125 19.46484375 C-30.99767004 27.64972897 -25.99312792 34.06785068 -19.75 39.1875 C-17.01108089 41.0693192 -17.01108089 41.0693192 -14.75 42.1875 C-7.57120224 37.08257715 -1.18190698 31.51103911 2.25 23.1875 C2.92416884 18.06852032 3.04866642 12.91555786 0.625 8.25 C-2.58584741 4.10969676 -5.79392975 1.83952342 -10.75 0.1875 C-17.59790571 -0.33926198 -22.34828925 1.10601735 -27.5625 5.625 Z " fill="#F9F9FA" transform="translate(42.75,6.8125)"/>
<path d="M0 0 C3.74785043 2.08213913 4.79482295 3.2947039 6 7.4375 C6 11.37108373 5.41868244 12.95425175 3 16 C-0.20270544 17.60135272 -3.52463384 17.48861584 -7 17 C-10.06458538 14.95694308 -10.82153128 13.55920198 -11.9375 10.0625 C-12.0128328 6.37119268 -11.24574926 4.8873919 -9 2 C-5.48746854 -0.34168764 -4.13530644 -0.49623677 0 0 Z M-5 5 C-5.66 5.66 -6.32 6.32 -7 7 C-6.59471099 9.78237655 -6.59471099 9.78237655 -5 12 C-3.33382885 12.04063832 -1.66611905 12.042721 0 12 C0.67958603 9.60280568 0.67958603 9.60280568 1 7 C0.34 6.34 -0.32 5.68 -1 5 C-2.32 5 -3.64 5 -5 5 Z " fill="#F9F9FA" transform="translate(31,16)"/>
</svg>
