<?xml version="1.0" encoding="UTF-8"?>
<svg version="1.1" xmlns="http://www.w3.org/2000/svg" width="72" height="72">
<path d="M0 0 C1.546875 0.8353125 1.546875 0.8353125 3.125 1.6875 C10.71537404 7.79280086 17.09288332 14.94933946 18.21875 24.94140625 C18.88209053 33.94625391 18.51105404 41.9681233 14 50 C13.443125 51.03125 12.88625 52.0625 12.3125 53.125 C6.20719914 60.71537404 -0.94933946 67.09288332 -10.94140625 68.21875 C-19.94625391 68.88209053 -27.9681233 68.51105404 -36 64 C-37.03125 63.443125 -38.0625 62.88625 -39.125 62.3125 C-46.71537404 56.20719914 -53.09288332 49.05066054 -54.21875 39.05859375 C-54.88209053 30.05374609 -54.51105404 22.0318767 -50 14 C-49.443125 12.96875 -48.88625 11.9375 -48.3125 10.875 C-36.36883269 -3.97388368 -17.30119401 -9.71710897 0 0 Z M-40.82421875 9.6328125 C-47.1586753 16.49381078 -50.10294241 24.70577073 -50 34 C-49.30560617 42.62821266 -45.02431984 50.52449424 -38.6875 56.375 C-31.26278984 62.12263747 -23.07689015 64.56954424 -13.71875 63.81640625 C-5.26929591 62.3734537 2.50973426 57.68059115 7.75390625 50.90625 C12.86694461 43.08442329 15.02516965 34.79686969 13.4375 25.5 C11.21339435 17.12253537 6.26697195 9.75033617 -1 5 C-14.63889342 -2.91361166 -29.16292467 -0.80491967 -40.82421875 9.6328125 Z " fill="#F9F9FA" transform="translate(54,4)"/>
<path d="M0 0 C9.33333333 0 9.33333333 0 14 3 C16.45899354 6.68849031 16.80114533 9.71887962 16 14 C13.31119897 17.8295045 11.77990511 18.83379072 7.1875 19.8125 C5.6096875 19.9053125 5.6096875 19.9053125 4 20 C4 23.63 4 27.26 4 31 C2.68 31 1.36 31 0 31 C0 20.77 0 10.54 0 0 Z M4 5 C4 8.3 4 11.6 4 15 C7.60992379 14.34414811 7.60992379 14.34414811 11 13 C12.0146239 11.1935345 12.0146239 11.1935345 12 9 C10.39628155 6.64619349 10.39628155 6.64619349 8 5 C6.68 5 5.36 5 4 5 Z " fill="#F9F9FA" transform="translate(18,21)"/>
<path d="M0 0 C-0.33 1.65 -0.66 3.3 -1 5 C-2.6396875 5.37125 -2.6396875 5.37125 -4.3125 5.75 C-7.90124761 6.70775258 -7.90124761 6.70775258 -9.875 8.625 C-11.49305541 12.04089476 -12.11276546 15.21859827 -12 19 C-11.1155391 21.94707246 -11.1155391 21.94707246 -9 24 C-5.92438754 25.35980881 -5.92438754 25.35980881 -3 26 C-3 24.02 -3 22.04 -3 20 C-1.68 20 -0.36 20 1 20 C1 23.63 1 27.26 1 31 C-5.43239303 31.389842 -8.90242655 31.36934867 -14 27 C-17.25671306 23.96788784 -17.72412837 20.66104065 -18.0625 16.375 C-17.91861143 10.90723423 -15.98860893 7.13328341 -12.4375 3.0625 C-8.15473073 -0.56138169 -5.45858302 -0.08804166 0 0 Z " fill="#F9F9FA" transform="translate(53,21)"/>
</svg>
