<?xml version="1.0" encoding="UTF-8"?>
<svg version="1.1" xmlns="http://www.w3.org/2000/svg" width="64" height="64">
<path d="M0 0 C8.04071716 5.46768767 14.35713546 11.78672485 16.953125 21.328125 C17.97008074 32.73931439 17.08780568 41.52074309 9.640625 50.578125 C3.75028057 56.89640044 -1.9995096 60.87830798 -10.81640625 61.6640625 C-22.23808647 61.92046185 -29.76998744 60.10045244 -38.2578125 52.1875 C-45.41707366 44.7468705 -47.46537447 37.63799487 -47.41040039 27.37304688 C-47.154444 17.46241552 -43.06295379 11.07888989 -36.046875 4.328125 C-26.55128048 -3.80505814 -11.27874483 -6.1129075 0 0 Z " fill="#E50B16" transform="translate(47.046875,2.671875)"/>
<path d="M0 0 C9.9 0 19.8 0 30 0 C30.33 0.99 30.66 1.98 31 3 C25.39 3 19.78 3 14 3 C14.33 4.65 14.66 6.3 15 8 C16.3303125 7.87625 16.3303125 7.87625 17.6875 7.75 C21.85669411 8.06465616 23.10139072 9.02511153 26 12 C30 17.85016287 30 17.85016287 30 21 C27 20 27 20 25.5 17.0625 C25.005 16.051875 24.51 15.04125 24 14 C21.21885944 11.66608797 21.21885944 11.66608797 18.3125 12.375 C17.549375 12.58125 16.78625 12.7875 16 13 C15.67 14.32 15.34 15.64 15 17 C16.65 17 18.3 17 20 17 C20 16.34 20 15.68 20 15 C20.99 15.33 21.98 15.66 23 16 C22.0433747 18.47128202 21.54027102 19.72986449 19.125 20.9375 C17 21 17 21 14.75 19.6875 C14.1725 19.130625 13.595 18.57375 13 18 C13 17.34 13 16.68 13 16 C12.01 16.66 11.02 17.32 10 18 C11.22053859 21.66161578 12.36782304 22.16270474 15.5625 24.1875 C16.38878906 24.71730469 17.21507813 25.24710938 18.06640625 25.79296875 C19.02353516 26.39044922 19.02353516 26.39044922 20 27 C19.67 28.65 19.34 30.3 19 32 C12.29072303 28.14216574 6.52831191 22.62974078 3.5 15.4375 C3.335 14.633125 3.17 13.82875 3 13 C5.35953094 10.64046906 6.77895617 10.50858587 10 10 C10.33 7.69 10.66 5.38 11 3 C7.37 3 3.74 3 0 3 C0 2.01 0 1.02 0 0 Z " fill="#FDF4F4" transform="translate(15,18)"/>
<path d="M0 0 C0.44730469 0.39832031 0.89460938 0.79664063 1.35546875 1.20703125 C4.74779939 4.17984125 8.01840224 6.8282194 12 9 C11.67 10.65 11.34 12.3 11 14 C6.35691608 11.12570995 2.56301365 8.17133306 -1 4 C-0.66015625 1.8125 -0.66015625 1.8125 0 0 Z " fill="#FCE8E9" transform="translate(23,36)"/>
<path d="M0 0 C4.31687378 0.35001679 6.19275066 1.77686187 9 5 C8.01 5.66 7.02 6.32 6 7 C5.01 6.01 4.02 5.02 3 4 C3 4.66 3 5.32 3 6 C1.35 6 -0.3 6 -2 6 C-1.125 1.125 -1.125 1.125 0 0 Z " fill="#E7222B" transform="translate(32,29)"/>
<path d="M0 0 C0.99 0.33 1.98 0.66 3 1 C2.25 2.9375 2.25 2.9375 1 5 C-1 5.8125 -1 5.8125 -3 6 C-3.66 5.67 -4.32 5.34 -5 5 C-4.67 4.01 -4.34 3.02 -4 2 C-2.68 2 -1.36 2 0 2 C0 1.34 0 0.68 0 0 Z " fill="#FBE1E2" transform="translate(35,33)"/>
</svg>
