<?xml version="1.0" encoding="UTF-8"?>
<svg version="1.1" xmlns="http://www.w3.org/2000/svg" width="96" height="96">
<path d="M0 0 C1.31653564 0.01135986 1.31653564 0.01135986 2.65966797 0.02294922 C9.45144448 0.1952272 15.06562583 1.23369297 21.125 4.4375 C21.98222656 4.87320312 22.83945313 5.30890625 23.72265625 5.7578125 C36.08766834 12.58374678 43.23004062 22.68856753 47.52075195 36.01293945 C48.54203578 40.11086661 48.61362209 44.10669413 48.5625 48.3125 C48.55492676 49.19019043 48.54735352 50.06788086 48.53955078 50.97216797 C48.3672728 57.76394448 47.32880703 63.37812583 44.125 69.4375 C43.47144531 70.72333984 43.47144531 70.72333984 42.8046875 72.03515625 C35.97875322 84.40016834 25.87393247 91.54254062 12.54956055 95.83325195 C8.45163339 96.85453578 4.45580587 96.92612209 0.25 96.875 C-0.62769043 96.86742676 -1.50538086 96.85985352 -2.40966797 96.85205078 C-9.20144448 96.6797728 -14.81562583 95.64130703 -20.875 92.4375 C-22.16083984 91.78394531 -22.16083984 91.78394531 -23.47265625 91.1171875 C-35.83766834 84.29125322 -42.98004062 74.18643247 -47.27075195 60.86206055 C-48.29203578 56.76413339 -48.36362209 52.76830587 -48.3125 48.5625 C-48.30492676 47.68480957 -48.29735352 46.80711914 -48.28955078 45.90283203 C-48.1172728 39.11105552 -47.07880703 33.49687417 -43.875 27.4375 C-43.43929687 26.58027344 -43.00359375 25.72304688 -42.5546875 24.83984375 C-35.72875322 12.47483166 -25.62393247 5.33245938 -12.29956055 1.04174805 C-8.20163339 0.02046422 -4.20580587 -0.05112209 0 0 Z " fill="#F9F9FA" transform="translate(47.875,-0.4375)"/>
<path d="M0 0 C6 5 6 5 6.48046875 7.3515625 C6.38378906 8.10179687 6.28710938 8.85203125 6.1875 9.625 C5.75786652 12.91920362 5.75786652 12.91920362 7.21484375 15.78515625 C10.01474842 17.69056183 12.4117256 16.9366333 15.6484375 16.51953125 C18 17 18 17 23 23 C10.79 35.21 -1.42 47.42 -14 60 C-20 55 -20 55 -20.48046875 52.6484375 C-20.33544922 51.52308594 -20.33544922 51.52308594 -20.1875 50.375 C-19.75786652 47.08079638 -19.75786652 47.08079638 -21.21484375 44.21484375 C-24.01474842 42.30943817 -26.4117256 43.0633667 -29.6484375 43.48046875 C-32 43 -32 43 -37 37 C-24.79 24.79 -12.58 12.58 0 0 Z " fill="#E50C17" transform="translate(57,16)"/>
</svg>
