<?xml version="1.0" encoding="UTF-8"?>
<svg version="1.1" xmlns="http://www.w3.org/2000/svg" width="17" height="17">
<path d="M0 0 C5.61 0 11.22 0 17 0 C16.01 0.495 16.01 0.495 15 1 C14.64984951 2.66321482 14.31802943 4.33034549 14 6 C13.01 7.485 13.01 7.485 12 9 C12.495 9.598125 12.99 10.19625 13.5 10.8125 C15 13 15 13 15 16 C15.66 16.33 16.32 16.66 17 17 C11.39 17 5.78 17 0 17 C0.66 16.67 1.32 16.34 2 16 C2.35015049 14.33678518 2.68197057 12.66965451 3 11 C3.66 10.01 4.32 9.02 5 8 C4.505 7.401875 4.01 6.80375 3.5 6.1875 C2 4 2 4 2 1 C1.34 0.67 0.68 0.34 0 0 Z M4 1 C4 1.66 4 2.32 4 3 C6.97 3 9.94 3 13 3 C13 2.34 13 1.68 13 1 C10.03 1 7.06 1 4 1 Z M6 5 C6.33 5.66 6.66 6.32 7 7 C8.32 6.67 9.64 6.34 11 6 C11 5.67 11 5.34 11 5 C9.35 5 7.7 5 6 5 Z M7 10 C5.515 11.98 5.515 11.98 4 14 C4.33 14.66 4.66 15.32 5 16 C5.66 15.34 6.32 14.68 7 14 C9.26274788 14.35355436 10.95088852 14.97544426 13 16 C12.29660434 13.49034386 12.29660434 13.49034386 11 11 C8.95894361 10.11306697 8.95894361 10.11306697 7 10 Z " fill="#F9F9FA" transform="translate(0,0)"/>
</svg>
